<?xml version="1.0" encoding="UTF-8"?>
<!DOCTYPE svg PUBLIC "-//W3C//DTD SVG 1.1//EN" "http://www.w3.org/Graphics/SVG/1.1/DTD/svg11.dtd">
<!-- Creator: CorelDRAW -->
<svg xmlns="http://www.w3.org/2000/svg" xml:space="preserve" width="297mm" height="210mm" version="1.1" style="shape-rendering:geometricPrecision; text-rendering:geometricPrecision; image-rendering:optimizeQuality; fill-rule:evenodd; clip-rule:evenodd"
viewBox="0 0 29700 21000"
 xmlns:xlink="http://www.w3.org/1999/xlink"
 xmlns:xodm="http://www.corel.com/coreldraw/odm/2003">
 <defs>
  <style type="text/css">
   <![CDATA[
    .fil1 {fill:black}
    .fil0 {fill:white}
   ]]>
  </style>
 </defs>
 <g id="Capa_x0020_1">
  <metadata id="CorelCorpID_0Corel-Layer"/>
  <g id="_2544083140464">
   <path class="fil0" d="M13725.24 7874.66c57.94,-435.72 -214.38,-714.58 -368.36,-414.56 -126.82,247.13 -238.39,451.76 -389.01,665.94 -241.1,342.87 -682.46,760.27 -1113.03,979.59 -284.36,144.84 -386.64,160.46 -698.08,355.51 -352.67,220.87 -303.96,203.26 -299.08,737.65 3.21,351.19 2.77,703.53 0.51,1054.79 -3.15,489.58 -82.42,563.87 247.32,787.74 303.9,206.34 1090.88,520.69 1542.86,543.74 342.56,17.47 706.93,11.45 1051.17,11.2 297.27,-0.22 754.4,22.21 1033.99,-7.78 126.53,-13.55 249.93,-141.79 256.73,-280.22 29.2,-595.21 -920.71,-197.62 -1157.67,-401.53 -125.7,-108.18 -57.7,-282.09 101.38,-311.48l1035.26 -6.36c519.06,2.11 412.93,-443.95 285.1,-549.34 -215.51,-177.67 -1251.48,65.23 -1438.86,-134.36 -82.44,-87.84 -58.01,-289.09 134.38,-314.92 235.4,-31.59 1391.94,32.35 1540.15,-14.8 284.13,-90.4 282.13,-563.87 -73.17,-597.19 -338.92,-31.8 -1418.37,44.19 -1532.84,-35.33 -102.16,-70.97 -159.68,-207.16 -18.18,-311.03 87.29,-64.09 837.08,-28.76 1013.67,-28.76 686.75,0 1409.81,21.92 2091.86,0.15 351.92,-11.24 420.67,-435.26 184.03,-589.44 -149.46,-97.39 -767.01,-54.93 -988.68,-54.93 -697.11,0 -1394.64,0.62 -2091.71,-1.77 -288.23,-0.99 -865.17,95.42 -636.23,-323.64 180.96,-331.18 220.38,-261.56 286.49,-758.87z"/>
   <path class="fil1" d="M13725.24 7874.66c-66.11,497.31 -105.53,427.69 -286.49,758.87 -228.94,419.06 348,322.65 636.23,323.64 697.07,2.39 1394.6,1.77 2091.71,1.77 221.67,0 839.22,-42.46 988.68,54.93 236.64,154.18 167.89,578.2 -184.03,589.44 -682.05,21.77 -1405.11,-0.15 -2091.86,-0.15 -176.59,0 -926.38,-35.33 -1013.67,28.76 -141.5,103.87 -83.98,240.06 18.18,311.03 114.47,79.52 1193.92,3.53 1532.84,35.33 355.3,33.32 357.3,506.79 73.17,597.19 -148.21,47.15 -1304.75,-16.79 -1540.15,14.8 -192.39,25.83 -216.82,227.08 -134.38,314.92 187.38,199.59 1223.35,-43.31 1438.86,134.36 127.83,105.39 233.96,551.45 -285.1,549.34l-1035.26 6.36c-159.08,29.39 -227.08,203.3 -101.38,311.48 236.96,203.91 1186.87,-193.68 1157.67,401.53 -6.8,138.43 -130.2,266.67 -256.73,280.22 -279.59,29.99 -736.72,7.56 -1033.99,7.78 -344.24,0.25 -708.61,6.27 -1051.17,-11.2 -451.98,-23.05 -1238.96,-337.4 -1542.86,-543.74 -329.74,-223.87 -250.47,-298.16 -247.32,-787.74 2.26,-351.26 2.7,-703.6 -0.51,-1054.79 -4.88,-534.39 -53.59,-516.78 299.08,-737.65 311.44,-195.05 413.72,-210.67 698.08,-355.51 430.57,-219.32 871.93,-636.72 1113.03,-979.59 150.62,-214.18 262.19,-418.81 389.01,-665.94 153.98,-300.02 426.3,-21.16 368.36,414.56zm1535.19 4058.27c139.93,-102.94 266.75,-82.14 401.83,-379.11 95.93,-210.88 65.48,-456.81 -41.7,-631.84 134.15,-94.16 268.44,-120.74 373.41,-360.23 113.79,-259.62 51.77,-360.87 -10.73,-602.18 281.62,1.16 563.28,0.51 844.92,0.53 332.27,0.02 444.55,-8.55 634.67,-199.25 294.67,-295.51 280.78,-875.92 -216.67,-1105.95 -212.27,-98.17 -1314.8,-54.29 -1633.69,-54.29 -560.91,0 -1138.51,13.24 -1696.87,-0.19 6.95,-109.21 191.77,-420.3 172.7,-882.99 -13.32,-323.95 -155.53,-619.62 -381.68,-707.03 -584.48,-225.94 -715.67,504.05 -1104.2,1000.92 -360.53,461.08 -716.52,684 -1237.97,924.86 -207.03,95.63 -546,280.56 -667.33,405.46 -226.68,233.31 -201.72,500.21 -195.81,892.9 5.36,357.08 3.51,715.54 0.4,1072.67 -3.99,454.22 -65.5,626.23 210.36,878.03 347.66,317.41 907.23,546.2 1484.13,679.39 617.29,142.54 1410.77,74.94 2075.43,80.35 374.29,3.04 690.04,40.35 893.7,-189.89 221.9,-250.88 225.72,-481.88 95.1,-822.16z"/>
  </g>
 </g>
</svg>
