<?xml version="1.0" encoding="UTF-8"?>
<!DOCTYPE svg PUBLIC "-//W3C//DTD SVG 1.1//EN" "http://www.w3.org/Graphics/SVG/1.1/DTD/svg11.dtd">
<!-- Creator: CorelDRAW -->
<svg xmlns="http://www.w3.org/2000/svg" xml:space="preserve" width="297mm" height="210mm" version="1.1" style="shape-rendering:geometricPrecision; text-rendering:geometricPrecision; image-rendering:optimizeQuality; fill-rule:evenodd; clip-rule:evenodd"
viewBox="0 0 29700 21000"
 xmlns:xlink="http://www.w3.org/1999/xlink"
 xmlns:xodm="http://www.corel.com/coreldraw/odm/2003">
 <defs>
  <style type="text/css">
   <![CDATA[
    .fil1 {fill:#060606}
    .fil2 {fill:#FCFCFC}
    .fil0 {fill:#FDFDFD}
   ]]>
  </style>
 </defs>
 <g id="Capa_x0020_1">
  <metadata id="CorelCorpID_0Corel-Layer"/>
  <g id="_2930496212016">
   <path class="fil0" d="M9700.85 10997.31c-114.91,-105.56 -6.7,-367.1 29.53,-556.42 184.51,-964.03 65.52,-693.36 512.38,-1003.39 128.06,-88.86 347.88,-288.27 505.34,-250.26 20.98,279.89 -646.89,355.86 -739.48,688.58 -46.63,167.55 -78.25,401.6 -116.29,588.22 -69.6,341.52 -38.6,476.63 -191.48,533.27zm-1446.39 1712.16l579.98 -764.09c144.06,-279.55 61.73,-478.61 624.9,-752.85 608.6,-296.35 383.69,-131.73 815.93,-558.92l3446.82 -3436.28c-294.35,-101.71 -896.91,-250.29 -1238.88,-271.81 -753.36,-47.43 -3732.15,1595.94 -3953.84,2245.92 -133.96,392.77 -156.12,939.94 -175.39,1383.38 -24.7,568.29 -1097.88,1839.99 -99.52,2154.65z"/>
   <path class="fil1" d="M8966.41 13469.81c412.9,-321.88 384.62,-316.54 734.44,-641.43 128,92.49 422.11,328.25 511.64,459.04 371.32,542.46 -355.6,1114.51 -798.04,726.53 -86.64,-75.97 -402.79,-447.93 -448.04,-544.14zm516.92 -692.62c-182.83,269.79 -505.11,478.23 -808.5,700.27 -191.33,140.04 -782,621.71 -930.2,552.35 -251.63,-117.77 203.36,-588.58 428.71,-911.34 97.67,-139.88 223.44,-316.19 330.05,-446.47 118.45,-144.72 237.96,-248.61 349.22,-383.42 93.38,89.75 112.49,224.63 232.64,326.49 101.17,85.77 233.67,127.53 398.08,162.12zm509.97 -133.3c471.36,-227.47 1136.86,-439.22 1654.24,-637.75 446.14,-171.18 1417.76,-540.03 1492.92,284.41 66.95,734.34 -858.51,720.9 -1442.6,818.39 -382.38,63.82 -671.64,133.27 -1020.68,-40.28 -125.02,-62.16 -612.03,-351.06 -683.88,-424.77zm3272.17 -575.81c409.99,-71.78 828.87,-198.34 1127.7,71.61 340.33,307.42 189.54,777.17 -95.45,963.24 -207.57,135.53 -876.53,200.24 -1163.43,246.95 -468.59,76.3 -747.65,128.68 -1126.6,-108.54 382.95,-160.27 1489.19,-5.43 1257.78,-1173.26zm-5011.01 641.39c-998.36,-314.66 74.82,-1586.36 99.52,-2154.65 19.27,-443.44 41.43,-990.61 175.39,-1383.38 221.69,-649.98 3200.48,-2293.35 3953.84,-2245.92 341.97,21.52 944.53,170.1 1238.88,271.81l-3446.82 3436.28c-432.24,427.19 -207.33,262.57 -815.93,558.92 -563.17,274.24 -480.84,473.3 -624.9,752.85l-579.98 764.09zm2579.56 -2336.59c39.6,-130.18 291.16,-334.86 398.99,-439.49l4465.91 -4458.69c275.41,-279.82 535.29,-529.56 814.96,-807.8 151.46,-150.67 625.65,-787.71 975.18,-350.38 190.53,238.38 47.89,459.97 -88.57,599.31l-4466.44 4460.81c-477.24,480.26 -388.33,471.77 -949.84,673.58 -199.31,71.63 -397.07,146.5 -591.17,220.05 -476.99,180.76 -396.48,213.45 -559.02,102.61zm3065.31 -3309.86c-410.59,-45.29 -862.47,-248.23 -1339.35,-295.36 -854.9,-84.48 -2756.74,1110.43 -3373.3,1540.68 -166.83,116.42 -302.87,230.55 -460.25,352.95 -193.15,150.23 -252.49,176.59 -350.98,459.59 -174.63,501.79 -129.07,945.58 -185.81,1468.36 -71.78,661.4 -1153.53,1664.5 -43.98,2260.89 -59.84,138.26 -272.57,416.96 -365.24,545.01 -180.7,249.69 -324.56,297.22 -253.54,700.99 -200.12,97.27 -183.26,316.6 26.87,171 157.85,-109.37 -22.5,-72.59 215.4,-59.39 352.89,19.6 731.23,-484.14 1062.86,-624.11l459.78 552.94c476.67,381.8 1179.82,60.99 1179.38,-548.78 -0.25,-337.95 -221.09,-513.38 -374.66,-659.92 301.99,126.83 484.95,357.04 911.76,408.08 271.55,32.47 373.19,-24.97 617.93,-49.92 175.29,-17.87 290.18,106.65 452.66,181.07 725.2,332.13 1013.12,-157.4 2346.72,12.58 1257.62,160.28 2407.28,392.75 3672.12,286.19l892.56 -133.61c167.62,-37.15 182.49,-16.18 202.92,-151.08 -102.66,-72.9 -762.64,94.1 -1162.62,123.41 -1228.67,90.06 -2207.66,-129.15 -3425.94,-267.18l-213.72 -33.58c-77.67,-25.39 -42.05,-13.65 -75.29,-34.46 384.99,-163.37 525.7,-558.52 345.45,-1065.38 264.45,66.06 532.56,196.33 800.06,279.31 753.28,233.68 1984.94,236.34 2816.42,204.78 189.87,-7.21 150.33,22.81 201.06,-88.85 -31.67,-65.23 29.5,-86.8 -310,-82.19 -896.38,12.16 -1936.59,54.28 -2738.3,-212.94 -421.43,-140.47 -814.3,-314.13 -1233.08,-461.72 -260.67,-91.86 -1131.47,-197.53 -1463.24,-232.34 -517.14,-54.25 -922.62,153.32 -1341.09,317.58 -221.27,86.85 -1695.03,674.64 -1868.95,679.01 -539.79,13.57 -921.29,-943.99 212.18,-1353.59 515.12,388.19 284.13,476.99 519.16,452.55 57.63,-259.19 -245.1,-409.71 -343.61,-557.68 388.28,-139.77 1072.31,-549.22 1892.79,-855.28l1726.42 -672.79c170.35,-66.93 166.06,-26.85 203.05,-160.33 -8.49,-6.53 -23.08,-24.05 -28.53,-14.81l-87.35 -24.15c-95.01,-1.43 -567.72,235.21 -783.97,296.2 98.84,-164.58 1346.21,-1363.03 1589.09,-1602.93 156.57,-154.65 373.69,-400.16 534.07,-521.21 493.35,89.81 2450.97,915.82 3038.1,1087.41 155.14,45.34 908.49,203.97 1090.25,159.13 166.01,-40.94 60.21,24.49 114.42,-85.19 -82.45,-136.82 -188.16,-60.54 -568.8,-110.68 -771.1,-101.59 -1698.29,-549.72 -2518.9,-833.62 -303.87,-105.13 -750.59,-238.03 -1007.62,-356.89 89.39,-125.72 262.18,-272.23 382.37,-392.54 515.65,-516.17 1642.22,-1584.61 2031.41,-2024.34 142.21,-160.67 264.5,-282.19 213.9,-575.49 -62.47,-362.16 -558,-683.28 -992.97,-238.8 -140.01,143.08 -260.55,263.46 -405.43,405.29l-1629.83 1616.24c-185.98,181.71 -692.55,644.27 -804.81,819.89z"/>
   <path class="fil2" d="M10834.02 10372.88c162.54,110.84 82.03,78.15 559.02,-102.61 194.1,-73.55 391.86,-148.42 591.17,-220.05 561.51,-201.81 472.6,-193.32 949.84,-673.58l4466.44 -4460.81c136.46,-139.34 279.1,-360.93 88.57,-599.31 -349.53,-437.33 -823.72,199.71 -975.18,350.38 -279.67,278.24 -539.55,527.98 -814.96,807.8l-4465.91 4458.69c-107.83,104.63 -359.39,309.31 -398.99,439.49z"/>
   <path class="fil0" d="M9993.3 12643.89c71.85,73.71 558.86,362.61 683.88,424.77 349.04,173.55 638.3,104.1 1020.68,40.28 584.09,-97.49 1509.55,-84.05 1442.6,-818.39 -75.16,-824.44 -1046.78,-455.59 -1492.92,-284.41 -517.38,198.53 -1182.88,410.28 -1654.24,637.75z"/>
   <path class="fil0" d="M13265.47 12068.08c231.41,1167.83 -874.83,1012.99 -1257.78,1173.26 378.95,237.22 658.01,184.84 1126.6,108.54 286.9,-46.71 955.86,-111.42 1163.43,-246.95 284.99,-186.07 435.78,-655.82 95.45,-963.24 -298.83,-269.95 -717.71,-143.39 -1127.7,-71.61z"/>
   <path class="fil2" d="M9483.33 12777.19c-164.41,-34.59 -296.91,-76.35 -398.08,-162.12 -120.15,-101.86 -139.26,-236.74 -232.64,-326.49 -111.26,134.81 -230.77,238.7 -349.22,383.42 -106.61,130.28 -232.38,306.59 -330.05,446.47 -225.35,322.76 -680.34,793.57 -428.71,911.34 148.2,69.36 738.87,-412.31 930.2,-552.35 303.39,-222.04 625.67,-430.48 808.5,-700.27z"/>
   <path class="fil0" d="M8966.41 13469.81c45.25,96.21 361.4,468.17 448.04,544.14 442.44,387.98 1169.36,-184.07 798.04,-726.53 -89.53,-130.79 -383.64,-366.55 -511.64,-459.04 -349.82,324.89 -321.54,319.55 -734.44,641.43z"/>
   <path class="fil1" d="M9700.85 10997.31c152.88,-56.64 121.88,-191.75 191.48,-533.27 38.04,-186.62 69.66,-420.67 116.29,-588.22 92.59,-332.72 760.46,-408.69 739.48,-688.58 -157.46,-38.01 -377.28,161.4 -505.34,250.26 -446.86,310.03 -327.87,39.36 -512.38,1003.39 -36.23,189.32 -144.44,450.86 -29.53,556.42z"/>
  </g>
 </g>
</svg>
